<svg xmlns:dc="http://purl.org/dc/elements/1.1/" xmlns:cc="http://creativecommons.org/ns#" xmlns:rdf="http://www.w3.org/1999/02/22-rdf-syntax-ns#" xmlns:svg="http://www.w3.org/2000/svg" xmlns="http://www.w3.org/2000/svg" xmlns:sodipodi="http://sodipodi.sourceforge.net/DTD/sodipodi-0.dtd" xmlns:inkscape="http://www.inkscape.org/namespaces/inkscape" width="744.09448" height="744.09448" version="1.1" inkscape:version="0.91 r13725" sodipodi:docname="logo-web.svg" inkscape:export-filename="/home/pablo/Proyectos/porloscerros/grafica/logo.png" inkscape:export-xdpi="300" inkscape:export-ydpi="300" style=""><rect id="backgroundrect" width="100%" height="100%" x="0" y="0" fill="none" stroke="none"/>
  <defs id="defs4942"/>
  <sodipodi:namedview id="base" pagecolor="#ffffff" bordercolor="#666666" borderopacity="1.0" inkscape:pageopacity="1" inkscape:pageshadow="2" inkscape:zoom="0.83860317" inkscape:cx="372.04724" inkscape:cy="372.04724" inkscape:document-units="px" inkscape:current-layer="layer1" showgrid="false" inkscape:window-width="1440" inkscape:window-height="845" inkscape:window-x="0" inkscape:window-y="0" inkscape:window-maximized="1" units="px"/>
  <metadata id="metadata4945">
    <rdf:RDF>
      <cc:Work rdf:about="">
        <dc:format>image/svg+xml</dc:format>
        <dc:type rdf:resource="http://purl.org/dc/dcmitype/StillImage"/>
        <dc:title/>
      </cc:Work>
    </rdf:RDF>
  </metadata>
  
<g class="currentLayer" style=""><title>Layer 1</title>
    
      
      
      
      
      
      
      
      
      
      
        
        
      
    
  <g class="selected"><path sodipodi:open="true" d="m129.8277446435547,521.9851986317891 a0,0 0 0 1 0,0 a0,0 0 0 1 0,0 a0,0 0 0 1 0,0 " sodipodi:end="5.3653007" sodipodi:start="0.93006036" sodipodi:ry="303.0936" sodipodi:rx="303.0936" sodipodi:cy="-526.93842" sodipodi:cx="649.06793" sodipodi:type="arc" id="path3346" style="fill:#ffffff;stroke:#636b6f;stroke-width:3;stroke-miterlimit:4;stroke-dasharray:none;stroke-opacity:1" class=""/><g style="stroke: rgb(99, 107, 111); stroke-width: 4.59965; stroke-linejoin: round; stroke-miterlimit: 4; stroke-dasharray: none; stroke-opacity: 1;" id="g3424-0-9" class="" fill="#ffffff" fill-opacity="1">
        <g id="g3352-2-2" style="stroke: rgb(99, 107, 111); stroke-width: 4.59965; stroke-linejoin: round; stroke-miterlimit: 4; stroke-dasharray: none; stroke-opacity: 1;" stroke-width="0" fill="#ffffff" fill-opacity="1">
          <path inkscape:connector-curvature="0" id="path3348-3-2" d="m383.5466959758262,521.8921606220218 l-157.72766608640217,0 l104.42659515724155,-207.7654137028232 z" style="fill-rule: evenodd; stroke: rgb(99, 107, 111); stroke-width: 4.59965; stroke-linecap: butt; stroke-linejoin: round; stroke-miterlimit: 4; stroke-dasharray: none; stroke-opacity: 1;" stroke-width="0" fill="#ffffff" fill-opacity="1"/>
          <path sodipodi:nodetypes="cccc" inkscape:connector-curvature="0" id="path3350-7-8" d="m383.5466959758262,521.8921606220218 l77.7760577359892,0 l-131.0005771319224,-208.0288926401826 z" style="fill-rule: evenodd; stroke: rgb(99, 107, 111); stroke-width: 4.59965; stroke-linecap: butt; stroke-linejoin: round; stroke-miterlimit: 4; stroke-dasharray: none; stroke-opacity: 1;" stroke-width="0" fill="#ffffff" fill-opacity="1"/>
        </g>
        <path style="fill-rule: evenodd; stroke: rgb(99, 107, 111); stroke-width: 4.59965; stroke-linecap: butt; stroke-linejoin: round; stroke-miterlimit: 4; stroke-dasharray: none; stroke-opacity: 1;" d="m307.9699767687182,357.7562030897059 l13.8451375624716,-8.460917399288201 l19.4216594557118,8.2686221914716 l12.499084152235799,-7.8840382980786 " id="path3396-5-9" inkscape:connector-curvature="0" stroke-width="0" fill="#ffffff" fill-opacity="1"/>
      </g><g id="g4803" class="">
        <g id="g4799">
          <path inkscape:connector-curvature="0" id="path3348" d="m324.4037824343872,545.5134256668538 l-205.73557,0 l136.21114,-270.65501 z" style="fill:#ffffff;fill-rule:evenodd;stroke:#636b6f;stroke-width:2.99810219;stroke-linecap:butt;stroke-linejoin:round;stroke-miterlimit:4;stroke-dasharray:none;stroke-opacity:1"/>
          <path sodipodi:nodetypes="cccc" inkscape:connector-curvature="0" id="path3350" d="m324.4037824343872,545.5134256668538 l101.44892,0 l-171.08175,-270.76034 z" style="fill:#ffffff;fill-rule:evenodd;stroke:#636b6f;stroke-width:2.99799991;stroke-linecap:butt;stroke-linejoin:round;stroke-miterlimit:4;stroke-dasharray:none;stroke-opacity:1"/>
        </g>
        <path style="fill:none;fill-rule:evenodd;stroke:#636b6f;stroke-width:2.99810219;stroke-linecap:butt;stroke-linejoin:miter;stroke-miterlimit:4;stroke-dasharray:none;stroke-opacity:1" d="m225.8236124343872,331.6943056668538 l18.05921,-11.022 l25.33307,10.77149 l16.30346,-10.27049 " id="path3396" inkscape:connector-curvature="0"/>
      </g><g id="g3361" style="fill:#ffffff;stroke:#636b6f;stroke-width:3.52636695;stroke-miterlimit:4;stroke-dasharray:none;stroke-opacity:1" class="">
        <path style="fill:#ffffff;fill-rule:evenodd;stroke:#636b6f;stroke-width:3.52636695;stroke-linecap:butt;stroke-linejoin:miter;stroke-miterlimit:4;stroke-dasharray:none;stroke-opacity:1" d="M577.669379573075,545.1663116892305 L439.33009458795203,204.62933370500951 " id="path3356" inkscape:connector-curvature="0" stroke-width="0"/>
      </g><g id="g4826" class="">
        <g id="g4822">
          <path style="fill:#ffffff;fill-rule:evenodd;stroke:#636b6f;stroke-width:3.52636695;stroke-linecap:butt;stroke-linejoin:round;stroke-miterlimit:4;stroke-dasharray:none;stroke-opacity:1" d="m439.33009434082226,204.6293222982009 l-169.55430693123003,340.5369779842213 l307.18416675336204,0.7079785149100009 " id="path3358" inkscape:connector-curvature="0"/>
          <path inkscape:connector-curvature="0" id="path3365" d="m577.6693824343872,545.8742756668538 l48.95083,0 l-187.29012,-341.24495 z" style="fill:#ffffff;fill-rule:evenodd;stroke:#636b6f;stroke-width:2.99694967;stroke-linecap:butt;stroke-linejoin:round;stroke-miterlimit:4;stroke-dasharray:none;stroke-opacity:1"/>
        </g>
        <path style="fill:none;fill-rule:evenodd;stroke:#636b6f;stroke-width:2.99694967;stroke-linecap:butt;stroke-linejoin:miter;stroke-miterlimit:4;stroke-dasharray:none;stroke-opacity:1" d="m398.8893124343872,284.45345566685376 l28.84455,-11.01354 l10.53453,10.26262 l25.83468,-18.27246 l23.82811,27.53384 " id="path3398" inkscape:connector-curvature="0"/>
      </g><g id="g4584" style="stroke-width:3.52636695;stroke-miterlimit:4;stroke-dasharray:none" class="">
        <ellipse style="fill:#ffffff;stroke:#636b6f;stroke-width:3.52636695;stroke-miterlimit:4;stroke-dasharray:none;stroke-opacity:1" id="path3375" cx="-30.632659912109375" cy="218.06441833288955" rx="45.00592041015625" ry="40.836429595947266" transform="matrix(-0.8507339,0,0,0.8507339,193.34803000000002,6.699336394381703) " stroke-width="0"/>
        <ellipse style="fill:#ffffff;stroke:#636b6f;stroke-width:3.52636695;stroke-miterlimit:4;stroke-dasharray:none;stroke-opacity:1" id="path3379" cx="-81.50044250488281" cy="230.78136779578017" rx="22.93220329284668" ry="22.306779861450195" transform="matrix(-0.8507339,0,0,0.8507339,193.34803000000002,6.699336394381703) " stroke-width="0"/>
        <ellipse style="fill:#ffffff;stroke:#636b6f;stroke-width:3.52636695;stroke-miterlimit:4;stroke-dasharray:none;stroke-opacity:1" id="path3379-3" cx="19.401260375976562" cy="229.7389941385536" rx="22.93220329284668" ry="22.306779861450195" transform="matrix(-0.8507339,0,0,0.8507339,193.34803000000002,6.699336394381703) " stroke-width="0"/>
        <rect style="fill:#ffffff;stroke:none;stroke-width:3.52636695;stroke-miterlimit:4;stroke-dasharray:none" id="rect4376" width="29.1776065826416" height="36.73607635498047" x="-12.578460693359347" y="-154.21446655480577" ry="0" transform="matrix(0.8507339,0,0,0.8507339,193.34803,314.96708) " stroke-width="0"/>
        <rect style="fill:#ffffff;stroke:none;stroke-width:3.52636695;stroke-miterlimit:4;stroke-dasharray:none" id="rect4376-1" width="29.1776065826416" height="36.106204986572266" x="44.63494873046878" y="-153.58458374230577" ry="0" transform="matrix(0.8507339,0,0,0.8507339,193.34803,314.96708) " stroke-width="0"/>
      </g><g id="g4596" style="stroke-width:3.52636695;stroke-miterlimit:4;stroke-dasharray:none" class="">
        <ellipse style="fill:#ffffff;stroke:#636b6f;stroke-width:3.52636695;stroke-miterlimit:4;stroke-dasharray:none;stroke-opacity:1" id="path3375-70" cx="-285.46934509277344" cy="102.49171783240126" rx="27.55901336669922" ry="25.005859375" transform="matrix(-0.8507339,0,0,0.8507339,193.34803000000002,6.699336394381703) " stroke-width="0"/>
        <ellipse style="fill:#ffffff;stroke:#636b6f;stroke-width:3.52636695;stroke-miterlimit:4;stroke-dasharray:none;stroke-opacity:1" id="path3379-9" cx="-316.6178436279297" cy="110.27882720740126" rx="14.042349815368652" ry="13.659377098083496" transform="matrix(-0.8507339,0,0,0.8507339,193.34803000000002,6.699336394381703) " stroke-width="0"/>
        <ellipse style="fill:#ffffff;stroke:#636b6f;stroke-width:3.52636695;stroke-miterlimit:4;stroke-dasharray:none;stroke-opacity:1" id="path3379-3-36" cx="-254.8314971923828" cy="109.64054443152236" rx="14.042349815368652" ry="13.659377098083496" transform="matrix(-0.8507339,0,0,0.8507339,193.34803000000002,6.699336394381703) " stroke-width="0"/>
        <rect style="fill:#ffffff;stroke:none;stroke-width:3.52636695;stroke-miterlimit:4;stroke-dasharray:none" id="rect4376-0" width="17.86667251586914" height="22.495040893554688" x="259.00938415527344" y="-265.94012115685655" ry="0" transform="matrix(0.8507339,0,0,0.8507339,193.34803,314.96708) " stroke-width="0"/>
        <rect style="fill:#ffffff;stroke:none;stroke-width:3.52636695;stroke-miterlimit:4;stroke-dasharray:none" id="rect4376-1-6" width="17.86667251586914" height="22.109344482421875" x="294.04356384277344" y="-265.55442474572374" ry="0" transform="matrix(0.8507339,0,0,0.8507339,193.34803,314.96708) " stroke-width="0"/>
      </g><g id="g4608" style="stroke-width:3.52636695;stroke-miterlimit:4;stroke-dasharray:none" class="">
        <ellipse style="fill:#ffffff;stroke:#636b6f;stroke-width:3.52636695;stroke-miterlimit:4;stroke-dasharray:none;stroke-opacity:1" id="path3375-1" cx="-427.23182678222656" cy="228.88238097937392" rx="30.897912979125977" ry="28.035432815551758" transform="matrix(-0.8507339,0,0,0.8507339,193.34803000000002,6.699336394381703) " stroke-width="0"/>
        <ellipse style="fill:#ffffff;stroke:#636b6f;stroke-width:3.52636695;stroke-miterlimit:4;stroke-dasharray:none;stroke-opacity:1" id="path3379-8" cx="-462.15406799316406" cy="237.61295654089736" rx="15.743644714355469" ry="15.3142728805542" transform="matrix(-0.8507339,0,0,0.8507339,193.34803000000002,6.699336394381703) " stroke-width="0"/>
        <ellipse style="fill:#ffffff;stroke:#636b6f;stroke-width:3.52636695;stroke-miterlimit:4;stroke-dasharray:none;stroke-opacity:1" id="path3379-3-7" cx="-392.8820343017578" cy="236.89733459265517" rx="15.743644714355469" ry="15.3142728805542" transform="matrix(-0.8507339,0,0,0.8507339,193.34803000000002,6.699336394381703) " stroke-width="0"/>
        <rect style="fill:#ffffff;stroke:none;stroke-width:3.52636695;stroke-miterlimit:4;stroke-dasharray:none" id="rect4376-9" width="20.031301498413086" height="25.220417022705078" x="397.5661163330078" y="-140.28567932336045" ry="0" transform="matrix(0.8507339,0,0,0.8507339,193.34803,314.96708) " stroke-width="0"/>
        <rect style="fill:#ffffff;stroke:none;stroke-width:3.52636695;stroke-miterlimit:4;stroke-dasharray:none" id="rect4376-1-2" width="20.031301498413086" height="24.78799057006836" x="436.8448028564453" y="-139.8532452413292" ry="0" transform="matrix(0.8507339,0,0,0.8507339,193.34803,314.96708) " stroke-width="0"/>
      </g><path inkscape:connector-curvature="0" id="path4577" d="M677.3564046435547,546.557718631789 L66.6999746435547,545.549258631789 " style="fill:#ffffff;fill-rule:evenodd;stroke:#636b6f;stroke-width:3;stroke-linecap:butt;stroke-linejoin:miter;stroke-miterlimit:4;stroke-dasharray:none;stroke-opacity:1" class=""/><g style="font-style:normal;font-variant:normal;font-weight:normal;font-stretch:normal;font-size:77.65486908px;line-height:125%;font-family:Sawasdee;-inkscape-font-specification:Sawasdee;text-align:start;letter-spacing:0px;word-spacing:0px;writing-mode:lr-tb;text-anchor:start;fill:#636b6f;fill-opacity:1;stroke:none;stroke-width:1px;stroke-linecap:butt;stroke-linejoin:miter;stroke-opacity:1" id="flowRoot3361-1-9" class="">
          <path d="m72.93986243438721,640.4380356668538 l0,-56.68654 l20.09623,0 q6.10471,0 10.35146,4.39842 q4.2467500000000005,4.39842 4.2467500000000005,10.57896 q0,6.25638 -4.2467500000000005,10.69271 q-4.20884,4.43634 -10.23771,4.43634 l-16.79741,0 l0,26.58011 l-3.41257,0 zm3.41257,-30.14435 l16.79741,0 q4.51218,0 7.7351600000000005,-3.37465 q3.26089,-3.37465 3.26089,-8.19016 q0,-4.81551 -3.26089,-8.19016 q-3.2609,-3.41257 -7.84891,-3.41257 l-16.68366,0 l0,23.16754 z" id="path3508" inkscape:connector-curvature="0"/>
          <path d="m134.44191243438723,585.6094556668538 q5.30844,-2.2750500000000002 11.14772,-2.2750500000000002 q5.8392800000000005,0 11.14772,2.2750500000000002 q5.34636,2.27504 9.17602,6.14262 q3.86757,3.86757 6.14262,9.21393 q2.27504,5.34635 2.27504,11.22355 q0,5.8772 -2.27504,11.22356 q-2.2750500000000002,5.30844 -6.14262,9.17601 q-3.82966,3.8675800000000002 -9.17602,6.14263 q-5.30844,2.27504 -11.14772,2.27504 q-5.8392800000000005,0 -11.14772,-2.27504 q-5.30844,-2.2750500000000002 -9.1381,-6.14263 q-3.82966,-3.86757 -6.1047,-9.17601 q-2.2750500000000002,-5.34636 -2.2750500000000002,-11.22356 q0,-5.8772 2.2750500000000002,-11.22355 q2.27504,-5.34636 6.1047,-9.21393 q3.82966,-3.8675800000000002 9.1381,-6.14262 zm-14.1432,26.5801 q0,5.15677 1.9717099999999999,9.85853 q2.00962,4.70176 5.38427,8.11433 q3.37465,3.41257 8.07641,5.46011 q4.70176,2.00962 9.85853,2.00962 q5.19469,0 9.89645,-2.00962 q4.70176,-2.04754 8.07641,-5.46011 q3.37465,-3.41257 5.38427,-8.11433 q2.00962,-4.70176 2.00962,-9.85853 q0,-6.93888 -3.37465,-12.77817 q-3.37465,-5.8771900000000015 -9.25185,-9.28976 q-5.8392800000000005,-3.41257 -12.74025,-3.41257 q-6.90097,0 -12.74025,3.41257 q-5.80137,3.41257 -9.17602,9.28976 q-3.37465,5.83929 -3.37465,12.77817 z" id="path3510" inkscape:connector-curvature="0"/>
          <path d="m185.3270824343872,640.4380356668538 l0,-56.6107 l20.09623,0 q6.10471,0 10.35146,4.43633 q4.2467500000000005,4.39842 4.2467500000000005,10.69272 q0,5.34635 -3.33673,9.51727 q-3.29882,4.133 -8.266,5.15677 l14.67404,26.80761 l-3.82966,0 l-14.56029,-26.58011 l-15.96323,0 l0,26.58011 l-3.41257,0 zm3.41257,-29.95476 l16.79742,0 q4.51217,0 7.73515,-3.37465 q3.2609,-3.37465 3.2609,-8.15224 q0,-4.85343 -3.2609,-8.266 q-3.2609,-3.45049 -7.84891,-3.45049 l-16.68366,0 l0,23.24338 z" id="path3512" inkscape:connector-curvature="0"/>
          <path d="m263.8919724343872,640.4380356668538 l-32.91231,0 l0,-56.6107 l3.41256,0 l0,53.19813 l29.49975,0 l0,3.41257 z" id="path3514" inkscape:connector-curvature="0"/>
          <path d="m285.6565624343872,585.6094556668538 q5.30844,-2.2750500000000002 11.14772,-2.2750500000000002 q5.8392800000000005,0 11.14772,2.2750500000000002 q5.34636,2.27504 9.17601,6.14262 q3.8675800000000002,3.86757 6.14263,9.21393 q2.27504,5.34635 2.27504,11.22355 q0,5.8772 -2.27504,11.22356 q-2.2750500000000002,5.30844 -6.14263,9.17601 q-3.82965,3.8675800000000002 -9.17601,6.14263 q-5.30844,2.27504 -11.14772,2.27504 q-5.8392800000000005,0 -11.14772,-2.27504 q-5.30844,-2.2750500000000002 -9.1381,-6.14263 q-3.82966,-3.86757 -6.1047,-9.17601 q-2.2750500000000002,-5.34636 -2.2750500000000002,-11.22356 q0,-5.8772 2.2750500000000002,-11.22355 q2.27504,-5.34636 6.1047,-9.21393 q3.82966,-3.8675800000000002 9.1381,-6.14262 zm-14.1432,26.5801 q0,5.15677 1.9717099999999999,9.85853 q2.00962,4.70176 5.38427,8.11433 q3.37465,3.41257 8.07641,5.46011 q4.70176,2.00962 9.85853,2.00962 q5.19469,0 9.89645,-2.00962 q4.7017500000000005,-2.04754 8.07641,-5.46011 q3.37465,-3.41257 5.38427,-8.11433 q2.00962,-4.70176 2.00962,-9.85853 q0,-6.93888 -3.37465,-12.77817 q-3.37465,-5.8771900000000015 -9.25185,-9.28976 q-5.8392800000000005,-3.41257 -12.74025,-3.41257 q-6.90097,0 -12.74025,3.41257 q-5.80137,3.41257 -9.17602,9.28976 q-3.37465,5.83929 -3.37465,12.77817 z" id="path3516" inkscape:connector-curvature="0"/>
          <path d="m366.7619124343872,593.8375256668538 l-3.22298,1.09961 q-1.32711,-4.05716 -4.39842,-6.14262 q-3.03339,-2.08546 -6.63555,-2.08546 q-4.3605,0 -7.12847,2.80589 q-2.73006,2.80589 -2.73006,6.86305 q0,2.08546 0.9479400000000003,3.79174 q0.94793,1.70629 2.54047,2.9196400000000002 q1.59253,1.21336 3.64007,2.2750500000000002 q2.08545,1.02377 4.3605,1.9717 q2.31296,0.9479400000000003 4.58801,2.00963 q2.31296,1.02377 4.3605,2.3888000000000003 q2.08546,1.3650200000000001 3.6779900000000003,3.03339 q1.59253,1.66836 2.54047,4.09508 q0.94793,2.42671 0.94793,5.38427 q0,4.92927 -2.54046,8.83476 q-2.54047,3.90549 -6.59764,5.95304 q-4.05716,2.04754 -8.75892,2.04754 q-3.07131,0 -5.8772,-0.98586 q-2.80589,-0.98585 -5.2326,-2.9196400000000002 q-2.42672,-1.9717 -4.133,-5.2326 q-1.70628,-3.2609 -2.23713,-7.46973 l3.37465,-0.41709 q0.9479400000000003,6.82513 4.85343,10.19978 q3.94341,3.33673 9.25185,3.33673 q3.7538300000000002,0 7.01472,-1.55461 q3.2609,-1.59253 5.34636,-4.70176 q2.12337,-3.14715 2.12337,-7.20431 q0,-2.54047 -0.94793,-4.58801 q-0.9479400000000003,-2.04754 -2.54047,-3.45048 q-1.59253,-1.4029500000000001 -3.6779900000000003,-2.57839 q-2.04754,-1.17544 -4.3605,-2.12337 q-2.2750500000000002,-0.98585 -4.58801,-1.9717099999999999 q-2.27504,-0.98585 -4.3605,-2.19921 q-2.04754,-1.21335 -3.64007,-2.65422 q-1.59253,-1.44086 -2.54047,-3.52632 q-0.94793,-2.12337 -0.94793,-4.73967 q0,-5.46011 3.7159,-9.28977 q3.71591,-3.8675800000000002 9.55519,-3.8675800000000002 q4.55009,0 8.53142,2.84381 q4.01925,2.80589 5.72553,7.8489 z" id="path3518" inkscape:connector-curvature="0"/>
          <path d="m428.49146243438724,627.3186056668537 l2.73006,1.85796 q-3.94341,5.42219 -10.0102,8.56933 q-6.06679,3.10923 -13.08151,3.10923 q-5.8392800000000005,0 -11.14772,-2.27504 q-5.30844,-2.2750500000000002 -9.1381,-6.14263 q-3.82966,-3.86757 -6.1047,-9.21393 q-2.2750500000000002,-5.34635 -2.2750500000000002,-11.22355 q0,-5.8772 2.2750500000000002,-11.22356 q2.27504,-5.34635 6.1047,-9.21393 q3.82966,-3.8675800000000002 9.1381,-6.14262 q5.30844,-2.2750500000000002 11.14772,-2.2750500000000002 q6.97681,0 13.04359,3.18507 q6.06679,3.14714 10.04812,8.60725 l-2.73006,2.00962 q-3.52632,-4.73967 -8.87267,-7.46973 q-5.30844,-2.76797 -11.48898,-2.76797 q-6.90097,0 -12.74025,3.41257 q-5.80137,3.41257 -9.17602,9.28976 q-3.37465,5.83929 -3.37465,12.77817 q0,5.15677 1.9717099999999999,9.85853 q2.00962,4.70176 5.38427,8.11433 q3.37465,3.41257 8.07641,5.46011 q4.70176,2.00962 9.85853,2.00962 q6.18054,0 11.48898,-2.76797 q5.34635,-2.76797 8.87267,-7.54557 z" id="path3520" inkscape:connector-curvature="0"/>
          <path d="m472.66527243438725,605.8573556668538 l0,3.41256 l-27.14887,0 l0,27.75555 l29.34808,0 l0,3.41257 l-32.76065,0 l0,-56.6107 l32.91232,0 l0,3.41256 l-29.49975,0 l0,18.61746 l27.14887,0 z" id="path3522" inkscape:connector-curvature="0"/>
          <path d="m483.66130243438715,640.4380356668538 l0,-56.6107 l20.09623,0 q6.1047,0 10.35145,4.43633 q4.2467500000000005,4.39842 4.2467500000000005,10.69272 q0,5.34635 -3.33673,9.51727 q-3.29882,4.133 -8.266,5.15677 l14.67404,26.80761 l-3.82966,0 l-14.56028,-26.58011 l-15.96324,0 l0,26.58011 l-3.41256,0 zm3.41256,-29.95476 l16.79742,0 q4.51217,0 7.73515,-3.37465 q3.2609,-3.37465 3.2609,-8.15224 q0,-4.85343 -3.2609,-8.266 q-3.2609,-3.45049 -7.8489,-3.45049 l-16.68367,0 l0,23.24338 z" id="path3524" inkscape:connector-curvature="0"/>
          <path d="m529.3138824343872,640.4380356668538 l0,-56.6107 l20.09624,0 q6.1047,0 10.35145,4.43633 q4.2467500000000005,4.39842 4.2467500000000005,10.69272 q0,5.34635 -3.33673,9.51727 q-3.29882,4.133 -8.266,5.15677 l14.67404,26.80761 l-3.82966,0 l-14.56029,-26.58011 l-15.96323,0 l0,26.58011 l-3.41257,0 zm3.41257,-29.95476 l16.79742,0 q4.51217,0 7.73515,-3.37465 q3.2609,-3.37465 3.2609,-8.15224 q0,-4.85343 -3.2609,-8.266 q-3.2609,-3.45049 -7.8489,-3.45049 l-16.68367,0 l0,23.24338 z" id="path3526" inkscape:connector-curvature="0"/>
          <path d="m590.8159224343872,585.6094556668538 q5.30844,-2.2750500000000002 11.14772,-2.2750500000000002 q5.8392800000000005,0 11.14772,2.2750500000000002 q5.34636,2.27504 9.17602,6.14262 q3.86757,3.86757 6.14262,9.21393 q2.27504,5.34635 2.27504,11.22355 q0,5.8772 -2.27504,11.22356 q-2.2750500000000002,5.30844 -6.14262,9.17601 q-3.82966,3.8675800000000002 -9.17602,6.14263 q-5.30844,2.27504 -11.14772,2.27504 q-5.8392800000000005,0 -11.14772,-2.27504 q-5.30844,-2.2750500000000002 -9.1381,-6.14263 q-3.82965,-3.86757 -6.1047,-9.17601 q-2.27504,-5.34636 -2.27504,-11.22356 q0,-5.8772 2.27504,-11.22355 q2.2750500000000002,-5.34636 6.1047,-9.21393 q3.82966,-3.8675800000000002 9.1381,-6.14262 zm-14.14319,26.5801 q0,5.15677 1.9717,9.85853 q2.00962,4.70176 5.38427,8.11433 q3.37465,3.41257 8.07641,5.46011 q4.70176,2.00962 9.85853,2.00962 q5.19469,0 9.89645,-2.00962 q4.70176,-2.04754 8.07641,-5.46011 q3.37465,-3.41257 5.38427,-8.11433 q2.00962,-4.70176 2.00962,-9.85853 q0,-6.93888 -3.37465,-12.77817 q-3.37465,-5.8771900000000015 -9.25185,-9.28976 q-5.8392800000000005,-3.41257 -12.74025,-3.41257 q-6.90097,0 -12.74025,3.41257 q-5.80136,3.41257 -9.17601,9.28976 q-3.37465,5.83929 -3.37465,12.77817 z" id="path3528" inkscape:connector-curvature="0"/>
          <path d="m671.9212724343872,593.8375256668538 l-3.22298,1.09961 q-1.32711,-4.05716 -4.39842,-6.14262 q-3.03339,-2.08546 -6.63555,-2.08546 q-4.3605,0 -7.12847,2.80589 q-2.7300500000000003,2.80589 -2.7300500000000003,6.86305 q0,2.08546 0.94793,3.79174 q0.9479400000000003,1.70629 2.54047,2.9196400000000002 q1.59253,1.21336 3.64007,2.2750500000000002 q2.08546,1.02377 4.3605,1.9717 q2.31297,0.9479400000000003 4.58801,2.00963 q2.31296,1.02377 4.3605,2.3888000000000003 q2.08546,1.3650200000000001 3.6779900000000003,3.03339 q1.59253,1.66836 2.54047,4.09508 q0.94793,2.42671 0.94793,5.38427 q0,4.92927 -2.54046,8.83476 q-2.54047,3.90549 -6.5976300000000005,5.95304 q-4.05717,2.04754 -8.75893,2.04754 q-3.07131,0 -5.8772,-0.98586 q-2.80588,-0.98585 -5.2326,-2.9196400000000002 q-2.42671,-1.9717 -4.133,-5.2326 q-1.70628,-3.2609 -2.23712,-7.46973 l3.37465,-0.41709 q0.94793,6.82513 4.85342,10.19978 q3.94342,3.33673 9.25185,3.33673 q3.7538300000000002,0 7.01473,-1.55461 q3.26089,-1.59253 5.34635,-4.70176 q2.12338,-3.14715 2.12338,-7.20431 q0,-2.54047 -0.9479400000000003,-4.58801 q-0.94793,-2.04754 -2.54047,-3.45048 q-1.59253,-1.4029500000000001 -3.6779800000000002,-2.57839 q-2.04754,-1.17544 -4.36051,-2.12337 q-2.27504,-0.98585 -4.588,-1.9717099999999999 q-2.2750500000000002,-0.98585 -4.36051,-2.19921 q-2.04754,-1.21335 -3.64007,-2.65422 q-1.59253,-1.44086 -2.54047,-3.52632 q-0.94793,-2.12337 -0.94793,-4.73967 q0,-5.46011 3.7159,-9.28977 q3.71591,-3.8675800000000002 9.55519,-3.8675800000000002 q4.55009,0 8.53142,2.84381 q4.01925,2.80589 5.72553,7.8489 z" id="path3530" inkscape:connector-curvature="0"/>
        </g></g></g></svg>